<?xml version="1.0" standalone="no"?>
<!DOCTYPE svg PUBLIC "-//W3C//DTD SVG 20010904//EN"
 "http://www.w3.org/TR/2001/REC-SVG-20010904/DTD/svg10.dtd">
<svg version="1.0" xmlns="http://www.w3.org/2000/svg"
 width="256.000000pt" height="256.000000pt" viewBox="0 0 256.000000 256.000000"
 preserveAspectRatio="xMidYMid meet">

<g transform="translate(0.000000,256.000000) scale(0.100000,-0.100000)"
fill="#000000" stroke="none">
<path d="M1115 2447 c-67 -23 -101 -44 -142 -91 -47 -53 -63 -101 -63 -187 0
-46 8 -81 26 -124 14 -33 28 -67 31 -76 3 -11 -15 -30 -59 -61 -114 -82 -212
-198 -277 -326 -17 -35 -37 -65 -44 -66 -7 -2 -34 -10 -60 -17 -113 -29 -237
-146 -316 -298 -52 -100 -84 -213 -70 -248 11 -29 36 -52 57 -53 8 0 39 -20
70 -44 59 -46 156 -98 206 -110 23 -6 27 -11 22 -29 -29 -102 -36 -142 -36
-212 0 -168 91 -265 249 -265 100 0 187 62 217 154 9 28 18 52 19 54 2 2 35
-13 74 -32 445 -224 980 -37 1190 416 61 131 76 201 76 363 0 103 -5 159 -19
210 -22 86 -102 253 -153 319 -21 27 -42 54 -47 61 -6 7 5 29 29 61 136 177
103 373 -77 463 -62 32 -136 40 -198 22 -21 -6 -31 0 -65 37 -84 95 -224 121
-339 63 l-58 -29 -44 25 c-54 30 -141 39 -199 20z m142 -52 c27 -8 58 -24 68
-35 24 -27 37 -25 90 12 104 74 265 38 327 -73 15 -25 29 -38 38 -35 8 2 35 9
60 16 102 29 211 -22 263 -121 25 -46 28 -62 24 -108 -6 -58 -42 -139 -82
-184 l-25 -28 -66 51 c-248 190 -604 237 -877 116 l-56 -25 -27 57 c-37 78
-44 172 -16 234 23 53 73 96 139 120 60 21 77 22 140 3z m383 -405 c41 -12
115 -42 165 -68 74 -38 108 -64 191 -146 90 -90 106 -112 152 -206 73 -149 87
-206 87 -375 0 -116 -4 -154 -23 -218 -108 -376 -453 -625 -837 -604 -129 7
-200 25 -311 77 -97 45 -124 69 -124 110 0 53 -31 157 -69 233 -39 78 -39 98
3 160 24 36 24 96 -1 144 -11 21 -50 64 -88 95 -146 123 -178 224 -115 357
115 242 339 410 620 465 62 12 276 -3 350 -24z m-1050 -563 c0 -49 25 -123 56
-168 14 -21 58 -64 95 -94 74 -60 99 -96 99 -144 0 -61 -38 -75 -255 -91 -195
-15 -366 0 -395 35 -14 16 20 127 66 215 68 130 159 223 257 262 65 26 77 24
77 -15z m200 -537 c0 -5 -18 -28 -39 -49 -75 -75 -211 -79 -350 -9 l-66 33
150 7 c121 6 235 16 298 27 4 0 7 -3 7 -9z m39 -142 c69 -164 79 -299 28 -377
-83 -125 -278 -99 -332 43 -21 54 -16 143 11 236 l19 65 70 8 c48 5 84 16 120
37 27 16 54 29 58 29 4 1 16 -18 26 -41z"/>
<path d="M1035 1538 c-94 -51 -57 -188 50 -188 14 0 39 13 57 29 27 24 33 36
33 71 0 73 -79 122 -140 88z"/>
</g>
</svg>
